<svg xmlns="http://www.w3.org/2000/svg" xmlns:xlink="http://www.w3.org/1999/xlink" width="500" zoomAndPan="magnify" viewBox="0 0 375 374.999991" height="500" preserveAspectRatio="xMidYMid meet" version="1.0"><defs><g/><clipPath id="d1ffbc06c5"><path d="M 63.976562 206.894531 L 305.714844 206.894531 L 305.714844 234.582031 L 63.976562 234.582031 Z M 63.976562 206.894531 " clip-rule="nonzero"/></clipPath><clipPath id="afa7e1b9a8"><path d="M 77.824219 206.894531 L 291.792969 206.894531 C 295.464844 206.894531 298.984375 208.351562 301.582031 210.949219 C 304.179688 213.546875 305.636719 217.066406 305.636719 220.738281 C 305.636719 224.410156 304.179688 227.929688 301.582031 230.527344 C 298.984375 233.125 295.464844 234.582031 291.792969 234.582031 L 77.824219 234.582031 C 74.152344 234.582031 70.628906 233.125 68.03125 230.527344 C 65.4375 227.929688 63.976562 224.410156 63.976562 220.738281 C 63.976562 217.066406 65.4375 213.546875 68.03125 210.949219 C 70.628906 208.351562 74.152344 206.894531 77.824219 206.894531 Z M 77.824219 206.894531 " clip-rule="nonzero"/></clipPath></defs><path stroke-linecap="butt" transform="matrix(0.796661, 0, 0, 0.796661, 96.637455, -0.962274)" fill="none" stroke-linejoin="miter" d="M 59.745534 314.429363 C 54.454895 317.420363 49.389808 319.916132 44.545368 321.91667 C 39.705831 323.912305 35.189911 325.50587 30.997607 326.707174 C 26.8004 327.903574 23.034682 328.751841 19.690645 329.251976 C 16.346609 329.75211 13.478191 330.002177 11.080487 330.002177 L -11.381435 330.002177 L 4.941581 320.867368 C 6.638116 318.670699 8.285618 316.47403 9.884087 314.277361 C 11.477653 312.080692 12.826054 310.036024 13.924389 308.138455 C 15.223758 306.039852 16.420158 303.946152 17.518493 301.847548 C 20.612462 295.561544 25.206835 285.377433 31.296707 271.305022 C 33.792477 265.313214 36.75896 258.17404 40.205966 249.892401 C 43.648068 241.605859 47.614821 231.970915 52.106225 220.992473 C 56.602532 210.009128 61.589167 197.535185 67.080839 183.555936 C 72.572512 169.58159 78.711418 153.91071 85.497556 136.538391 L 111.553582 112.580969 L 170.250738 311.580557 C 174.443042 312.678892 178.458828 313.380061 182.302999 313.679161 C 186.14717 313.978261 189.76579 314.130263 193.158859 314.130263 C 194.958362 314.130263 196.605864 314.100843 198.101364 314.05181 C 199.596865 314.002777 200.896234 313.929228 201.994568 313.826259 C 203.190968 313.728194 204.338336 313.581095 205.43667 313.380061 C 199.650801 316.17493 194.605326 318.59715 190.314957 320.641817 C 186.024588 322.686485 182.204933 324.407536 178.860897 325.80497 C 175.51686 327.207308 172.422891 328.251707 169.574086 328.952876 C 166.730184 329.649141 163.861765 330.002177 160.968831 330.002177 L 137.006505 330.002177 L 144.792912 325.059672 L 120.83549 245.700097 C 117.942555 246.499332 114.598519 247.269147 110.80338 248.019348 C 107.013146 248.76955 102.492322 249.441299 97.25562 250.039499 C 92.014014 250.637699 85.924142 251.186867 78.986001 251.687001 C 72.047861 252.187136 64.035903 252.638237 54.95503 253.035403 C 50.762726 261.920145 46.918555 269.804618 43.422517 276.693725 C 39.931382 283.582833 36.783477 289.569737 33.988608 294.664244 C 31.193739 299.753848 28.722486 304.044217 26.579753 307.540255 C 24.432116 311.03139 22.608097 313.826259 21.112596 315.924863 C 22.809131 316.223963 24.7067 316.449514 26.8004 316.596612 C 28.899004 316.748614 30.997607 316.822163 33.091308 316.822163 C 36.288246 316.822163 39.455764 316.699581 42.598766 316.449514 C 45.746671 316.199446 48.61509 315.924863 51.208924 315.625763 C 54.204828 315.223694 57.04873 314.826528 59.745534 314.429363 Z M 80.707052 235.216886 C 94.186167 235.216886 106.414946 234.917786 117.393388 234.319586 L 94.485267 158.250112 C 88.292425 174.12693 82.629138 188.297407 77.490501 200.776253 C 72.346961 213.255098 67.482908 224.733675 62.888536 235.216886 Z M 80.707052 235.216886 " stroke="#ffffff" stroke-width="23.000025" stroke-opacity="1" stroke-miterlimit="4"/><g fill="#000000" fill-opacity="1"><g transform="translate(96.637455, 261.935765)"><g><path d="M 47.59375 -12.40625 C 43.375 -10.019531 39.335938 -8.03125 35.484375 -6.4375 C 31.628906 -4.851562 28.03125 -3.582031 24.6875 -2.625 C 21.351562 -1.664062 18.351562 -0.988281 15.6875 -0.59375 C 13.019531 -0.195312 10.734375 0 8.828125 0 L -9.0625 0 L 3.9375 -7.28125 C 5.289062 -9.03125 6.601562 -10.78125 7.875 -12.53125 C 9.144531 -14.28125 10.21875 -15.910156 11.09375 -17.421875 C 12.125 -19.085938 13.078125 -20.753906 13.953125 -22.421875 C 16.421875 -27.429688 20.082031 -35.546875 24.9375 -46.765625 C 26.914062 -51.535156 29.273438 -57.21875 32.015625 -63.8125 C 34.765625 -70.414062 37.925781 -78.09375 41.5 -86.84375 C 45.082031 -95.59375 49.0625 -105.53125 53.4375 -116.65625 C 57.8125 -127.789062 62.703125 -140.273438 68.109375 -154.109375 L 88.875 -173.203125 L 135.625 -14.671875 C 138.96875 -13.796875 142.171875 -13.238281 145.234375 -13 C 148.296875 -12.757812 151.175781 -12.640625 153.875 -12.640625 C 155.3125 -12.640625 156.625 -12.660156 157.8125 -12.703125 C 159.007812 -12.742188 160.046875 -12.804688 160.921875 -12.890625 C 161.867188 -12.960938 162.78125 -13.078125 163.65625 -13.234375 C 159.039062 -11.015625 155.023438 -9.085938 151.609375 -7.453125 C 148.191406 -5.828125 145.148438 -4.457031 142.484375 -3.34375 C 139.816406 -2.226562 137.347656 -1.390625 135.078125 -0.828125 C 132.816406 -0.273438 130.535156 0 128.234375 0 L 109.140625 0 L 115.34375 -3.9375 L 96.265625 -67.15625 C 93.953125 -66.519531 91.285156 -65.90625 88.265625 -65.3125 C 85.242188 -64.71875 81.644531 -64.179688 77.46875 -63.703125 C 73.300781 -63.222656 68.453125 -62.785156 62.921875 -62.390625 C 57.390625 -61.992188 51.007812 -61.632812 43.78125 -61.3125 C 40.4375 -54.238281 37.375 -47.957031 34.59375 -42.46875 C 31.8125 -36.976562 29.304688 -32.203125 27.078125 -28.140625 C 24.847656 -24.085938 22.878906 -20.671875 21.171875 -17.890625 C 19.460938 -15.109375 18.007812 -12.882812 16.8125 -11.21875 C 18.164062 -10.976562 19.675781 -10.796875 21.34375 -10.671875 C 23.019531 -10.554688 24.691406 -10.5 26.359375 -10.5 C 28.898438 -10.5 31.421875 -10.597656 33.921875 -10.796875 C 36.429688 -10.992188 38.722656 -11.210938 40.796875 -11.453125 C 43.179688 -11.765625 45.445312 -12.082031 47.59375 -12.40625 Z M 64.296875 -75.5 C 75.035156 -75.5 84.773438 -75.738281 93.515625 -76.21875 L 75.265625 -136.828125 C 70.335938 -124.179688 65.828125 -112.882812 61.734375 -102.9375 C 57.640625 -93 53.757812 -83.851562 50.09375 -75.5 Z M 64.296875 -75.5 "/></g></g></g><path stroke-linecap="butt" transform="matrix(0.638842, 0, 0, 0.638842, 150.087489, 97.059054)" fill="none" stroke-linejoin="miter" d="M 159.771408 169.330197 C 158.970399 176.820551 156.970933 183.38149 153.779125 189.025242 C 150.587317 194.66288 146.741249 199.627915 142.247037 203.920346 C 137.758939 208.212778 132.940654 211.832606 127.798297 214.779831 C 122.662054 217.720941 117.794853 220.246261 113.202807 222.337445 C 121.983336 231.82115 129.895596 240.259264 136.933472 247.64567 C 143.971347 255.032076 150.232672 261.568556 155.72356 267.261225 C 161.214448 272.94778 165.983816 277.863898 170.02555 282.00958 C 174.067284 286.155261 177.540362 289.622225 180.432556 292.416586 C 187.219734 299.10593 191.964644 303.545112 194.655057 305.740244 C 197.449417 307.941491 200.494475 309.46402 203.790231 310.307831 C 207.085987 311.157757 210.277795 311.579663 213.37177 311.579663 C 215.970464 311.579663 218.465211 311.33508 220.862124 310.833685 C 223.259037 310.33229 225.154555 309.788092 226.548678 309.188864 C 221.760966 312.380672 217.54191 315.27898 213.897623 317.87156 C 210.253337 320.46414 206.908664 322.689845 203.863606 324.536447 C 200.818548 326.383048 197.926354 327.801629 195.18091 328.80442 C 192.435466 329.801095 189.616647 330.30249 186.718339 330.30249 C 184.724987 330.30249 182.756094 330.002876 180.805545 329.403648 C 178.86111 328.80442 176.812728 327.856661 174.666512 326.554256 C 172.520296 325.257966 170.227331 323.613146 167.781501 321.61368 C 165.335671 319.620328 162.663602 317.223415 159.771408 314.429055 C 157.869775 312.533536 155.026498 309.46402 151.235462 305.220505 C 147.438311 300.97699 143.194796 296.23208 138.504917 290.99189 C 133.815038 285.751699 128.923379 280.285269 123.829938 274.598715 C 118.742612 268.906046 113.948785 263.641397 109.454573 258.798654 C 104.966475 253.955911 100.998116 249.791885 97.555611 246.294349 C 94.10699 242.802927 91.74065 240.656711 90.438246 239.855702 C 88.946289 238.962974 87.344271 238.161964 85.650534 237.464903 C 84.250296 236.865675 82.629934 236.339821 80.783332 235.893457 C 78.936731 235.440979 77.163504 235.318687 75.469767 235.514354 L 97.176507 220.53976 C 102.172114 220.53976 106.935368 219.396335 111.478497 217.097255 C 116.021626 214.804289 119.965527 211.435158 123.310199 206.989863 C 126.654872 202.550681 129.271909 197.133168 131.167428 190.743438 C 133.062946 184.353707 133.815038 177.120165 133.417591 169.030583 C 133.21581 164.242871 132.139645 159.877065 130.19521 155.933164 C 128.250775 151.989263 125.756029 148.467268 122.710971 145.373293 C 119.665913 142.279319 116.192834 139.582791 112.303965 137.289826 C 108.408981 134.990746 104.416163 133.070769 100.325513 131.523782 C 96.228748 129.976794 92.162556 128.827254 88.120822 128.081276 C 84.079088 127.329184 80.361427 126.956194 76.961723 126.956194 C 74.668757 126.956194 72.174011 127.005111 69.477484 127.109059 C 66.780956 127.206892 64.084429 127.255809 61.394016 127.255809 C 61.094402 145.923605 60.770329 162.591936 60.415684 177.266915 C 60.067153 191.941894 59.743081 204.972053 59.443466 216.351276 C 59.143852 227.7305 58.868696 237.538278 58.624113 245.77461 C 58.373416 254.010942 58.09826 261.024359 57.798646 266.808747 C 57.199418 280.389217 56.649106 289.573308 56.153825 294.36102 C 55.854211 296.360486 55.352816 298.402754 54.655754 300.500053 C 54.056526 302.297738 53.231059 304.248288 52.185466 306.339472 C 51.133759 308.436771 49.813011 310.485154 48.217107 312.478505 C 52.509539 312.9799 56.37395 313.255056 59.82257 313.303973 C 63.265076 313.352889 66.432425 313.377348 69.330734 313.377348 C 76.215745 313.377348 81.284727 313.181681 84.525452 312.778119 C 87.772291 312.380672 89.643351 312.081058 90.138631 311.879277 C 84.947358 314.477971 80.061812 316.874884 75.469767 319.070017 C 70.877721 321.265149 66.481342 323.209584 62.292858 324.909436 C 58.09826 326.603173 54.080984 327.930035 50.234917 328.877795 C 46.394964 329.825554 42.622272 330.30249 38.929068 330.30249 L 12.874866 330.30249 L 26.051774 321.46693 C 26.75495 318.868236 27.427553 315.774261 28.075698 312.178891 C 28.723843 308.589636 29.298613 304.71911 29.800008 300.579543 C 30.295289 296.433861 30.723309 292.14143 31.07184 287.702249 C 31.420371 283.256953 31.744443 278.891146 32.044057 274.598715 C 32.643286 264.717562 33.08965 254.231067 33.389264 243.151457 C 33.591045 227.87725 33.792826 213.104437 33.988492 198.83302 C 34.09244 192.742904 34.190273 186.475465 34.288106 180.036817 C 34.392054 173.59817 34.465429 167.312387 34.514345 161.173354 C 34.563262 155.034321 34.636637 149.194903 34.740585 143.655098 C 34.838418 138.115293 34.887335 133.199175 34.887335 128.906744 L 7.934289 130.997928 L 37.137498 113.479672 C 38.831235 113.779286 40.702295 113.956609 42.750678 114.005525 C 44.79906 114.054442 46.914703 114.0789 49.11595 114.0789 C 53.408381 114.0789 57.645782 113.907692 61.84038 113.559161 C 66.034978 113.204516 70.199003 112.807069 74.344685 112.360705 C 78.484252 111.908226 82.556559 111.486321 86.549376 111.082759 C 90.542193 110.685311 94.583927 110.48353 98.674578 110.48353 C 106.660212 110.48353 114.499097 111.834851 122.185117 114.531379 C 129.871138 117.221792 136.633857 121.116776 142.473276 126.210216 C 148.312695 131.297543 152.880282 137.491607 156.176038 144.774065 C 159.471794 152.062638 160.664136 160.250054 159.771408 169.330197 Z M 227.001157 308.88925 C 226.799376 308.987083 226.701543 309.036 226.701543 309.036 L 226.548678 309.036 L 226.548678 309.188864 L 226.548678 309.036 L 226.701543 309.036 C 226.799376 308.938166 226.903324 308.88925 227.001157 308.88925 Z M 227.001157 308.88925 " stroke="#ffffff" stroke-width="23.000025" stroke-opacity="1" stroke-miterlimit="4"/><g fill="#000000" fill-opacity="1"><g transform="translate(150.087489, 307.877069)"><g><path d="M 102.0625 -102.640625 C 101.550781 -97.859375 100.273438 -93.664062 98.234375 -90.0625 C 96.191406 -86.457031 93.734375 -83.285156 90.859375 -80.546875 C 87.992188 -77.804688 84.921875 -75.492188 81.640625 -73.609375 C 78.359375 -71.722656 75.25 -70.113281 72.3125 -68.78125 C 77.925781 -62.71875 82.976562 -57.328125 87.46875 -52.609375 C 91.96875 -47.890625 95.972656 -43.710938 99.484375 -40.078125 C 102.992188 -36.441406 106.039062 -33.300781 108.625 -30.65625 C 111.207031 -28.007812 113.421875 -25.796875 115.265625 -24.015625 C 119.597656 -19.734375 122.628906 -16.894531 124.359375 -15.5 C 126.140625 -14.09375 128.082031 -13.117188 130.1875 -12.578125 C 132.289062 -12.035156 134.332031 -11.765625 136.3125 -11.765625 C 137.96875 -11.765625 139.5625 -11.921875 141.09375 -12.234375 C 142.625 -12.554688 143.835938 -12.910156 144.734375 -13.296875 C 141.671875 -11.253906 138.972656 -9.40625 136.640625 -7.75 C 134.316406 -6.09375 132.179688 -4.671875 130.234375 -3.484375 C 128.285156 -2.304688 126.4375 -1.398438 124.6875 -0.765625 C 122.9375 -0.128906 121.132812 0.1875 119.28125 0.1875 C 118.007812 0.1875 116.75 0 115.5 -0.375 C 114.257812 -0.757812 112.953125 -1.363281 111.578125 -2.1875 C 110.210938 -3.019531 108.75 -4.070312 107.1875 -5.34375 C 105.625 -6.625 103.914062 -8.160156 102.0625 -9.953125 C 100.851562 -11.160156 99.035156 -13.117188 96.609375 -15.828125 C 94.191406 -18.535156 91.484375 -21.5625 88.484375 -24.90625 C 85.484375 -28.257812 82.359375 -31.753906 79.109375 -35.390625 C 75.859375 -39.023438 72.796875 -42.390625 69.921875 -45.484375 C 67.054688 -48.578125 64.519531 -51.238281 62.3125 -53.46875 C 60.113281 -55.707031 58.601562 -57.078125 57.78125 -57.578125 C 56.820312 -58.160156 55.800781 -58.671875 54.71875 -59.109375 C 53.820312 -59.492188 52.785156 -59.828125 51.609375 -60.109375 C 50.429688 -60.398438 49.300781 -60.484375 48.21875 -60.359375 L 62.078125 -69.921875 C 65.265625 -69.921875 68.304688 -70.65625 71.203125 -72.125 C 74.109375 -73.59375 76.628906 -75.742188 78.765625 -78.578125 C 80.910156 -81.421875 82.585938 -84.878906 83.796875 -88.953125 C 85.003906 -93.035156 85.484375 -97.660156 85.234375 -102.828125 C 85.109375 -105.890625 84.421875 -108.679688 83.171875 -111.203125 C 81.929688 -113.722656 80.335938 -115.96875 78.390625 -117.9375 C 76.441406 -119.914062 74.222656 -121.640625 71.734375 -123.109375 C 69.253906 -124.578125 66.707031 -125.804688 64.09375 -126.796875 C 61.476562 -127.785156 58.878906 -128.519531 56.296875 -129 C 53.710938 -129.476562 51.335938 -129.71875 49.171875 -129.71875 C 47.703125 -129.71875 46.101562 -129.679688 44.375 -129.609375 C 42.65625 -129.546875 40.9375 -129.515625 39.21875 -129.515625 C 39.03125 -117.585938 38.820312 -106.9375 38.59375 -97.5625 C 38.375 -88.195312 38.164062 -79.878906 37.96875 -72.609375 C 37.78125 -65.335938 37.601562 -59.070312 37.4375 -53.8125 C 37.28125 -48.550781 37.109375 -44.070312 36.921875 -40.375 C 36.535156 -31.695312 36.1875 -25.828125 35.875 -22.765625 C 35.675781 -21.492188 35.359375 -20.1875 34.921875 -18.84375 C 34.535156 -17.695312 34.003906 -16.453125 33.328125 -15.109375 C 32.660156 -13.773438 31.816406 -12.46875 30.796875 -11.1875 C 33.546875 -10.875 36.019531 -10.703125 38.21875 -10.671875 C 40.414062 -10.640625 42.441406 -10.625 44.296875 -10.625 C 48.691406 -10.625 51.925781 -10.75 54 -11 C 56.070312 -11.257812 57.265625 -11.453125 57.578125 -11.578125 C 54.265625 -9.921875 51.140625 -8.390625 48.203125 -6.984375 C 45.273438 -5.578125 42.472656 -4.332031 39.796875 -3.25 C 37.117188 -2.164062 34.550781 -1.320312 32.09375 -0.71875 C 29.632812 -0.113281 27.226562 0.1875 24.875 0.1875 L 8.21875 0.1875 L 16.640625 -5.453125 C 17.085938 -7.109375 17.519531 -9.082031 17.9375 -11.375 C 18.351562 -13.675781 18.71875 -16.148438 19.03125 -18.796875 C 19.351562 -21.441406 19.625 -24.179688 19.84375 -27.015625 C 20.070312 -29.859375 20.28125 -32.648438 20.46875 -35.390625 C 20.851562 -41.703125 21.140625 -48.398438 21.328125 -55.484375 C 21.453125 -65.234375 21.582031 -74.671875 21.71875 -83.796875 C 21.78125 -87.679688 21.84375 -91.679688 21.90625 -95.796875 C 21.96875 -99.910156 22.015625 -103.925781 22.046875 -107.84375 C 22.078125 -111.769531 22.125 -115.503906 22.1875 -119.046875 C 22.25 -122.585938 22.28125 -125.726562 22.28125 -128.46875 L 5.0625 -127.125 L 23.71875 -138.328125 C 24.800781 -138.128906 25.992188 -138.015625 27.296875 -137.984375 C 28.609375 -137.953125 29.96875 -137.9375 31.375 -137.9375 C 34.113281 -137.9375 36.820312 -138.046875 39.5 -138.265625 C 42.1875 -138.492188 44.851562 -138.75 47.5 -139.03125 C 50.144531 -139.320312 52.738281 -139.59375 55.28125 -139.84375 C 57.832031 -140.101562 60.414062 -140.234375 63.03125 -140.234375 C 68.132812 -140.234375 73.140625 -139.367188 78.046875 -137.640625 C 82.960938 -135.921875 87.285156 -133.4375 91.015625 -130.1875 C 94.742188 -126.9375 97.660156 -122.984375 99.765625 -118.328125 C 101.867188 -113.671875 102.632812 -108.441406 102.0625 -102.640625 Z M 145.015625 -13.484375 C 144.890625 -13.421875 144.828125 -13.390625 144.828125 -13.390625 L 144.734375 -13.390625 L 144.734375 -13.296875 L 144.734375 -13.390625 L 144.828125 -13.390625 C 144.890625 -13.453125 144.953125 -13.484375 145.015625 -13.484375 Z M 145.015625 -13.484375 "/></g></g></g><g clip-path="url(#d1ffbc06c5)"><g clip-path="url(#afa7e1b9a8)"><path fill="#ffffff" d="M 63.976562 206.894531 L 305.605469 206.894531 L 305.605469 234.582031 L 63.976562 234.582031 Z M 63.976562 206.894531 " fill-opacity="1" fill-rule="nonzero"/></g></g><g fill="#000000" fill-opacity="1"><g transform="translate(89.891723, 227.709646)"><g><path d="M 4.265625 -1.109375 C 3.878906 -0.898438 3.515625 -0.722656 3.171875 -0.578125 C 2.828125 -0.429688 2.503906 -0.316406 2.203125 -0.234375 C 1.910156 -0.148438 1.644531 -0.0859375 1.40625 -0.046875 C 1.164062 -0.015625 0.960938 0 0.796875 0 L -0.8125 0 L 0.359375 -0.65625 C 0.472656 -0.8125 0.585938 -0.96875 0.703125 -1.125 C 0.816406 -1.28125 0.914062 -1.425781 1 -1.5625 C 1.082031 -1.707031 1.164062 -1.851562 1.25 -2 C 1.46875 -2.445312 1.796875 -3.175781 2.234375 -4.1875 C 2.410156 -4.613281 2.617188 -5.117188 2.859375 -5.703125 C 3.109375 -6.296875 3.390625 -6.984375 3.703125 -7.765625 C 4.023438 -8.546875 4.382812 -9.4375 4.78125 -10.4375 C 5.175781 -11.4375 5.613281 -12.554688 6.09375 -13.796875 L 7.953125 -15.5 L 12.140625 -1.3125 C 12.429688 -1.238281 12.710938 -1.1875 12.984375 -1.15625 C 13.265625 -1.132812 13.523438 -1.125 13.765625 -1.125 C 13.898438 -1.125 14.019531 -1.125 14.125 -1.125 C 14.226562 -1.132812 14.320312 -1.144531 14.40625 -1.15625 C 14.488281 -1.15625 14.566406 -1.164062 14.640625 -1.1875 C 14.234375 -0.988281 13.875 -0.816406 13.5625 -0.671875 C 13.257812 -0.523438 12.988281 -0.398438 12.75 -0.296875 C 12.507812 -0.203125 12.285156 -0.128906 12.078125 -0.078125 C 11.878906 -0.0234375 11.675781 0 11.46875 0 L 9.765625 0 L 10.328125 -0.359375 L 8.609375 -6.015625 C 8.398438 -5.953125 8.160156 -5.894531 7.890625 -5.84375 C 7.628906 -5.789062 7.3125 -5.742188 6.9375 -5.703125 C 6.5625 -5.660156 6.125 -5.617188 5.625 -5.578125 C 5.132812 -5.546875 4.566406 -5.515625 3.921875 -5.484375 C 3.617188 -4.847656 3.34375 -4.285156 3.09375 -3.796875 C 2.84375 -3.304688 2.617188 -2.878906 2.421875 -2.515625 C 2.222656 -2.148438 2.046875 -1.84375 1.890625 -1.59375 C 1.742188 -1.351562 1.613281 -1.15625 1.5 -1 C 1.625 -0.976562 1.757812 -0.960938 1.90625 -0.953125 C 2.0625 -0.941406 2.210938 -0.9375 2.359375 -0.9375 C 2.585938 -0.9375 2.8125 -0.945312 3.03125 -0.96875 C 3.257812 -0.988281 3.46875 -1.007812 3.65625 -1.03125 C 3.863281 -1.050781 4.066406 -1.078125 4.265625 -1.109375 Z M 5.75 -6.75 C 6.707031 -6.75 7.582031 -6.773438 8.375 -6.828125 L 6.734375 -12.25 C 6.296875 -11.113281 5.890625 -10.097656 5.515625 -9.203125 C 5.148438 -8.316406 4.804688 -7.5 4.484375 -6.75 Z M 5.75 -6.75 "/></g></g></g><g fill="#000000" fill-opacity="1"><g transform="translate(105.505027, 227.709646)"><g><path d="M 11.640625 -5.15625 C 11.640625 -4.476562 11.5 -3.878906 11.21875 -3.359375 C 10.945312 -2.847656 10.59375 -2.398438 10.15625 -2.015625 C 9.71875 -1.640625 9.222656 -1.320312 8.671875 -1.0625 C 8.128906 -0.800781 7.582031 -0.59375 7.03125 -0.4375 C 6.488281 -0.28125 5.96875 -0.164062 5.46875 -0.09375 C 4.96875 -0.03125 4.550781 0 4.21875 0 L 1.296875 0 C 1.398438 -0.0078125 1.492188 -0.0390625 1.578125 -0.09375 C 1.660156 -0.15625 1.734375 -0.234375 1.796875 -0.328125 C 1.867188 -0.421875 1.925781 -0.523438 1.96875 -0.640625 C 2.007812 -0.765625 2.050781 -0.890625 2.09375 -1.015625 C 2.164062 -1.296875 2.210938 -1.625 2.234375 -2 C 2.253906 -2.46875 2.28125 -3.222656 2.3125 -4.265625 C 2.332031 -4.703125 2.351562 -5.222656 2.375 -5.828125 C 2.394531 -6.441406 2.414062 -7.15625 2.4375 -7.96875 C 2.457031 -8.78125 2.484375 -9.703125 2.515625 -10.734375 C 2.554688 -11.765625 2.597656 -12.921875 2.640625 -14.203125 C 2.378906 -14.191406 2.078125 -14.179688 1.734375 -14.171875 C 1.398438 -14.160156 1.023438 -14.164062 0.609375 -14.1875 L 2.609375 -15.3125 C 2.847656 -15.289062 3.101562 -15.269531 3.375 -15.25 C 3.644531 -15.238281 3.910156 -15.234375 4.171875 -15.234375 C 4.429688 -15.234375 4.675781 -15.234375 4.90625 -15.234375 C 5.144531 -15.234375 5.359375 -15.242188 5.546875 -15.265625 C 5.742188 -15.273438 5.929688 -15.289062 6.109375 -15.3125 C 6.628906 -15.3125 7.15625 -15.265625 7.6875 -15.171875 C 8.226562 -15.085938 8.71875 -14.929688 9.15625 -14.703125 C 9.59375 -14.472656 9.945312 -14.148438 10.21875 -13.734375 C 10.5 -13.328125 10.640625 -12.796875 10.640625 -12.140625 C 10.609375 -11.640625 10.46875 -11.171875 10.21875 -10.734375 C 10.113281 -10.535156 9.984375 -10.335938 9.828125 -10.140625 C 9.671875 -9.953125 9.476562 -9.765625 9.25 -9.578125 C 9.019531 -9.398438 8.75 -9.238281 8.4375 -9.09375 C 8.125 -8.945312 7.757812 -8.820312 7.34375 -8.71875 C 7.46875 -8.726562 7.582031 -8.738281 7.6875 -8.75 C 7.800781 -8.757812 7.914062 -8.765625 8.03125 -8.765625 C 8.476562 -8.765625 8.875 -8.710938 9.21875 -8.609375 C 9.5625 -8.503906 9.859375 -8.363281 10.109375 -8.1875 C 10.359375 -8.019531 10.570312 -7.828125 10.75 -7.609375 C 10.925781 -7.398438 11.070312 -7.179688 11.1875 -6.953125 C 11.445312 -6.421875 11.597656 -5.820312 11.640625 -5.15625 Z M 4.125 -2.625 C 4.101562 -2.394531 4.050781 -2.171875 3.96875 -1.953125 C 3.90625 -1.765625 3.816406 -1.582031 3.703125 -1.40625 C 3.597656 -1.226562 3.457031 -1.101562 3.28125 -1.03125 C 3.988281 -0.957031 4.59375 -0.910156 5.09375 -0.890625 C 5.601562 -0.867188 6.019531 -0.859375 6.34375 -0.859375 C 6.5 -0.859375 6.640625 -0.859375 6.765625 -0.859375 C 6.890625 -0.859375 6.992188 -0.863281 7.078125 -0.875 C 7.171875 -0.882812 7.242188 -0.890625 7.296875 -0.890625 C 7.515625 -0.921875 7.75 -1.019531 8 -1.1875 C 8.25 -1.351562 8.484375 -1.570312 8.703125 -1.84375 C 8.929688 -2.113281 9.125 -2.429688 9.28125 -2.796875 C 9.4375 -3.160156 9.539062 -3.5625 9.59375 -4 C 9.65625 -4.59375 9.625 -5.125 9.5 -5.59375 C 9.375 -6.0625 9.15625 -6.457031 8.84375 -6.78125 C 8.53125 -7.113281 8.125 -7.363281 7.625 -7.53125 C 7.125 -7.707031 6.53125 -7.796875 5.84375 -7.796875 C 5.71875 -7.796875 5.585938 -7.789062 5.453125 -7.78125 C 5.316406 -7.78125 5.179688 -7.773438 5.046875 -7.765625 C 5.515625 -7.984375 5.957031 -8.191406 6.375 -8.390625 C 6.789062 -8.585938 7.15625 -8.828125 7.46875 -9.109375 C 7.789062 -9.390625 8.039062 -9.734375 8.21875 -10.140625 C 8.40625 -10.554688 8.5 -11.085938 8.5 -11.734375 C 8.5 -12.109375 8.4375 -12.429688 8.3125 -12.703125 C 8.1875 -12.972656 8.015625 -13.195312 7.796875 -13.375 C 7.585938 -13.5625 7.34375 -13.710938 7.0625 -13.828125 C 6.789062 -13.941406 6.507812 -14.03125 6.21875 -14.09375 C 5.925781 -14.164062 5.632812 -14.210938 5.34375 -14.234375 C 5.050781 -14.253906 4.78125 -14.265625 4.53125 -14.265625 C 4.5 -12.960938 4.46875 -11.800781 4.4375 -10.78125 C 4.414062 -9.757812 4.390625 -8.851562 4.359375 -8.0625 C 4.335938 -7.269531 4.316406 -6.585938 4.296875 -6.015625 C 4.285156 -5.441406 4.269531 -4.953125 4.25 -4.546875 C 4.207031 -3.597656 4.164062 -2.957031 4.125 -2.625 Z M 4.125 -2.625 "/></g></g></g><g fill="#000000" fill-opacity="1"><g transform="translate(119.559787, 227.709646)"><g><path d="M 15.578125 -8.578125 C 15.578125 -7.691406 15.429688 -6.863281 15.140625 -6.09375 C 14.847656 -5.332031 14.445312 -4.632812 13.9375 -4 C 13.4375 -3.363281 12.851562 -2.796875 12.1875 -2.296875 C 11.519531 -1.804688 10.8125 -1.390625 10.0625 -1.046875 C 9.3125 -0.703125 8.539062 -0.441406 7.75 -0.265625 C 6.96875 -0.0859375 6.207031 0 5.46875 0 C 5.394531 0.0078125 5.265625 0.015625 5.078125 0.015625 C 4.890625 0.015625 4.671875 0.015625 4.421875 0.015625 C 4.171875 0.015625 3.898438 0.015625 3.609375 0.015625 C 3.316406 0.015625 3.03125 0.015625 2.75 0.015625 C 2.476562 0.015625 2.21875 0.015625 1.96875 0.015625 C 1.726562 0.015625 1.53125 0.0078125 1.375 0 C 1.5 0 1.601562 -0.03125 1.6875 -0.09375 C 1.78125 -0.15625 1.859375 -0.238281 1.921875 -0.34375 C 1.992188 -0.457031 2.050781 -0.582031 2.09375 -0.71875 C 2.144531 -0.851562 2.191406 -0.992188 2.234375 -1.140625 C 2.304688 -1.484375 2.347656 -1.867188 2.359375 -2.296875 C 2.359375 -2.816406 2.363281 -3.597656 2.375 -4.640625 C 2.382812 -5.085938 2.390625 -5.609375 2.390625 -6.203125 C 2.398438 -6.804688 2.410156 -7.5 2.421875 -8.28125 C 2.441406 -9.0625 2.460938 -9.9375 2.484375 -10.90625 C 2.503906 -11.882812 2.523438 -12.96875 2.546875 -14.15625 C 2.234375 -14.125 1.921875 -14.097656 1.609375 -14.078125 C 1.296875 -14.066406 0.96875 -14.066406 0.625 -14.078125 L 2.625 -15.390625 C 2.945312 -15.347656 3.28125 -15.316406 3.625 -15.296875 C 3.976562 -15.285156 4.328125 -15.28125 4.671875 -15.28125 C 5.296875 -15.28125 5.875 -15.304688 6.40625 -15.359375 C 6.9375 -15.410156 7.460938 -15.4375 7.984375 -15.4375 C 8.453125 -15.4375 8.960938 -15.394531 9.515625 -15.3125 C 10.078125 -15.238281 10.640625 -15.101562 11.203125 -14.90625 C 11.765625 -14.71875 12.304688 -14.457031 12.828125 -14.125 C 13.359375 -13.800781 13.828125 -13.382812 14.234375 -12.875 C 14.640625 -12.363281 14.960938 -11.753906 15.203125 -11.046875 C 15.453125 -10.335938 15.578125 -9.515625 15.578125 -8.578125 Z M 4.15625 -2.953125 C 4.132812 -2.722656 4.085938 -2.507812 4.015625 -2.3125 C 3.953125 -2.125 3.863281 -1.929688 3.75 -1.734375 C 3.644531 -1.535156 3.5 -1.367188 3.3125 -1.234375 C 4.300781 -1.179688 5.113281 -1.144531 5.75 -1.125 C 6.394531 -1.113281 6.910156 -1.109375 7.296875 -1.109375 C 8.285156 -1.109375 9.171875 -1.285156 9.953125 -1.640625 C 10.734375 -1.992188 11.394531 -2.46875 11.9375 -3.0625 C 12.476562 -3.664062 12.894531 -4.363281 13.1875 -5.15625 C 13.476562 -5.957031 13.625 -6.804688 13.625 -7.703125 C 13.625 -8.578125 13.503906 -9.351562 13.265625 -10.03125 C 13.035156 -10.707031 12.726562 -11.300781 12.34375 -11.8125 C 11.957031 -12.320312 11.519531 -12.75 11.03125 -13.09375 C 10.539062 -13.445312 10.035156 -13.726562 9.515625 -13.9375 C 9.003906 -14.15625 8.492188 -14.3125 7.984375 -14.40625 C 7.484375 -14.507812 7.03125 -14.5625 6.625 -14.5625 C 6.207031 -14.5625 5.816406 -14.546875 5.453125 -14.515625 C 5.085938 -14.484375 4.734375 -14.445312 4.390625 -14.40625 C 4.367188 -13.113281 4.347656 -11.957031 4.328125 -10.9375 C 4.316406 -9.925781 4.300781 -9.03125 4.28125 -8.25 C 4.269531 -7.476562 4.257812 -6.804688 4.25 -6.234375 C 4.238281 -5.671875 4.226562 -5.191406 4.21875 -4.796875 C 4.1875 -3.878906 4.164062 -3.265625 4.15625 -2.953125 Z M 4.15625 -2.953125 "/></g></g></g><g fill="#000000" fill-opacity="1"><g transform="translate(137.596304, 227.709646)"><g><path d="M 6.078125 -15.40625 C 5.785156 -15.207031 5.46875 -15 5.125 -14.78125 C 4.78125 -14.5625 4.445312 -14.382812 4.125 -14.25 C 4.101562 -13.34375 4.082031 -12.515625 4.0625 -11.765625 C 4.039062 -11.015625 4.019531 -10.335938 4 -9.734375 C 3.988281 -9.140625 3.976562 -8.609375 3.96875 -8.140625 C 3.957031 -7.679688 3.953125 -7.273438 3.953125 -6.921875 C 3.929688 -6.109375 3.925781 -5.488281 3.9375 -5.0625 C 3.925781 -4.5625 4 -4.070312 4.15625 -3.59375 C 4.3125 -3.113281 4.5625 -2.6875 4.90625 -2.3125 C 5.257812 -1.9375 5.722656 -1.632812 6.296875 -1.40625 C 6.867188 -1.175781 7.5625 -1.0625 8.375 -1.0625 C 8.8125 -1.082031 9.269531 -1.148438 9.75 -1.265625 C 10.15625 -1.359375 10.601562 -1.503906 11.09375 -1.703125 C 11.582031 -1.898438 12.0625 -2.191406 12.53125 -2.578125 L 12.53125 -14.125 C 12.425781 -14.132812 12.320312 -14.140625 12.21875 -14.140625 C 12.113281 -14.140625 12.007812 -14.140625 11.90625 -14.140625 C 11.707031 -14.140625 11.507812 -14.132812 11.3125 -14.125 C 11.125 -14.113281 10.945312 -14.097656 10.78125 -14.078125 C 11.113281 -14.378906 11.410156 -14.609375 11.671875 -14.765625 C 11.929688 -14.921875 12.15625 -15.035156 12.34375 -15.109375 C 12.550781 -15.191406 12.734375 -15.242188 12.890625 -15.265625 C 13.023438 -15.265625 13.195312 -15.265625 13.40625 -15.265625 C 13.613281 -15.273438 13.832031 -15.28125 14.0625 -15.28125 C 14.289062 -15.289062 14.523438 -15.300781 14.765625 -15.3125 C 15.003906 -15.320312 15.222656 -15.332031 15.421875 -15.34375 C 15.628906 -15.351562 15.804688 -15.363281 15.953125 -15.375 C 16.097656 -15.382812 16.195312 -15.394531 16.25 -15.40625 C 16 -15.226562 15.71875 -15.039062 15.40625 -14.84375 C 15.09375 -14.65625 14.796875 -14.492188 14.515625 -14.359375 L 14.515625 -3.359375 C 14.503906 -3.015625 14.484375 -2.691406 14.453125 -2.390625 C 14.421875 -2.128906 14.375 -1.875 14.3125 -1.625 C 14.25 -1.382812 14.15625 -1.21875 14.03125 -1.125 C 14.4375 -1.070312 14.789062 -1.035156 15.09375 -1.015625 C 15.394531 -1.003906 15.660156 -1 15.890625 -1 C 16.296875 -1 16.585938 -1.015625 16.765625 -1.046875 C 16.941406 -1.078125 17.039062 -1.097656 17.0625 -1.109375 C 16.726562 -0.921875 16.421875 -0.753906 16.140625 -0.609375 C 15.867188 -0.472656 15.609375 -0.359375 15.359375 -0.265625 C 15.117188 -0.179688 14.878906 -0.113281 14.640625 -0.0625 C 14.410156 -0.0195312 14.179688 0 13.953125 0 L 11.875 0 C 12.03125 -0.0507812 12.148438 -0.171875 12.234375 -0.359375 C 12.328125 -0.554688 12.398438 -0.757812 12.453125 -0.96875 C 12.492188 -1.207031 12.519531 -1.46875 12.53125 -1.75 L 12.53125 -2.25 C 11.78125 -1.632812 11.0625 -1.164062 10.375 -0.84375 C 9.6875 -0.519531 9.078125 -0.28125 8.546875 -0.125 C 7.929688 0.0507812 7.347656 0.148438 6.796875 0.171875 C 5.898438 0.171875 5.144531 0.0507812 4.53125 -0.1875 C 3.925781 -0.425781 3.441406 -0.757812 3.078125 -1.1875 C 2.710938 -1.613281 2.453125 -2.125 2.296875 -2.71875 C 2.148438 -3.320312 2.085938 -3.984375 2.109375 -4.703125 C 2.097656 -5.285156 2.097656 -6.023438 2.109375 -6.921875 C 2.117188 -7.691406 2.128906 -8.671875 2.140625 -9.859375 C 2.160156 -11.046875 2.191406 -12.472656 2.234375 -14.140625 L 1.75 -14.140625 C 1.550781 -14.140625 1.351562 -14.132812 1.15625 -14.125 C 0.957031 -14.113281 0.773438 -14.097656 0.609375 -14.078125 C 0.941406 -14.378906 1.238281 -14.609375 1.5 -14.765625 C 1.757812 -14.921875 1.984375 -15.035156 2.171875 -15.109375 C 2.378906 -15.191406 2.566406 -15.242188 2.734375 -15.265625 C 2.867188 -15.265625 3.035156 -15.265625 3.234375 -15.265625 C 3.441406 -15.273438 3.660156 -15.28125 3.890625 -15.28125 C 4.128906 -15.289062 4.367188 -15.300781 4.609375 -15.3125 C 4.847656 -15.320312 5.066406 -15.332031 5.265625 -15.34375 C 5.472656 -15.351562 5.644531 -15.363281 5.78125 -15.375 C 5.925781 -15.382812 6.023438 -15.394531 6.078125 -15.40625 Z M 17.0625 -1.109375 L 17.0625 -1.125 L 17.078125 -1.125 C 17.085938 -1.125 17.09375 -1.125 17.09375 -1.125 Z M 17.0625 -1.109375 "/></g></g></g><g fill="#000000" fill-opacity="1"><g transform="translate(156.198593, 227.709646)"><g><path d="M 6.171875 -15.8125 C 5.835938 -15.59375 5.535156 -15.40625 5.265625 -15.25 C 4.992188 -15.09375 4.738281 -14.96875 4.5 -14.875 C 4.46875 -13.582031 4.4375 -12.425781 4.40625 -11.40625 C 4.382812 -10.394531 4.363281 -9.492188 4.34375 -8.703125 C 4.332031 -7.921875 4.320312 -7.242188 4.3125 -6.671875 C 4.300781 -6.097656 4.289062 -5.609375 4.28125 -5.203125 C 4.257812 -4.253906 4.253906 -3.601562 4.265625 -3.25 C 4.253906 -2.988281 4.222656 -2.738281 4.171875 -2.5 C 4.128906 -2.289062 4.0625 -2.070312 3.96875 -1.84375 C 3.875 -1.613281 3.75 -1.414062 3.59375 -1.25 C 4.019531 -1.238281 4.414062 -1.234375 4.78125 -1.234375 C 5.15625 -1.234375 5.515625 -1.234375 5.859375 -1.234375 C 6.835938 -1.234375 7.640625 -1.242188 8.265625 -1.265625 C 8.898438 -1.296875 9.40625 -1.332031 9.78125 -1.375 C 10.164062 -1.414062 10.4375 -1.453125 10.59375 -1.484375 C 10.75 -1.515625 10.835938 -1.535156 10.859375 -1.546875 C 10.484375 -1.285156 10.171875 -1.0625 9.921875 -0.875 C 9.671875 -0.695312 9.445312 -0.546875 9.25 -0.421875 C 9.0625 -0.304688 8.875 -0.21875 8.6875 -0.15625 C 8.5 -0.101562 8.28125 -0.078125 8.03125 -0.078125 L 6.375 -0.078125 C 5.914062 -0.078125 5.414062 -0.078125 4.875 -0.078125 C 4.332031 -0.078125 3.816406 -0.0703125 3.328125 -0.0625 C 2.835938 -0.0507812 2.398438 -0.03125 2.015625 0 C 1.628906 0.0195312 1.351562 0.046875 1.1875 0.078125 C 1.382812 -0.0859375 1.5625 -0.269531 1.71875 -0.46875 C 1.882812 -0.664062 2.023438 -0.910156 2.140625 -1.203125 C 2.265625 -1.492188 2.359375 -1.84375 2.421875 -2.25 C 2.484375 -2.664062 2.515625 -3.160156 2.515625 -3.734375 L 2.515625 -14.515625 C 2.296875 -14.492188 2.03125 -14.460938 1.71875 -14.421875 C 1.40625 -14.390625 1.050781 -14.347656 0.65625 -14.296875 C 1.039062 -14.609375 1.382812 -14.84375 1.6875 -15 C 2 -15.164062 2.265625 -15.289062 2.484375 -15.375 C 2.742188 -15.457031 2.972656 -15.503906 3.171875 -15.515625 C 3.421875 -15.515625 3.695312 -15.519531 4 -15.53125 C 4.300781 -15.539062 4.59375 -15.554688 4.875 -15.578125 C 5.15625 -15.609375 5.410156 -15.644531 5.640625 -15.6875 C 5.878906 -15.726562 6.054688 -15.769531 6.171875 -15.8125 Z M 10.859375 -1.546875 L 10.859375 -1.5625 C 10.867188 -1.5625 10.878906 -1.5625 10.890625 -1.5625 Z M 10.859375 -1.546875 "/></g></g></g><g fill="#000000" fill-opacity="1"><g transform="translate(168.225113, 227.709646)"><g/></g></g><g fill="#000000" fill-opacity="1"><g transform="translate(175.309132, 227.709646)"><g><path d="M 11.390625 -11.453125 C 11.328125 -10.921875 11.179688 -10.453125 10.953125 -10.046875 C 10.734375 -9.648438 10.460938 -9.296875 10.140625 -8.984375 C 9.816406 -8.679688 9.472656 -8.421875 9.109375 -8.203125 C 8.742188 -7.992188 8.394531 -7.816406 8.0625 -7.671875 C 8.695312 -6.992188 9.265625 -6.390625 9.765625 -5.859375 C 10.265625 -5.335938 10.707031 -4.875 11.09375 -4.46875 C 11.488281 -4.0625 11.828125 -3.710938 12.109375 -3.421875 C 12.398438 -3.128906 12.648438 -2.878906 12.859375 -2.671875 C 13.347656 -2.203125 13.6875 -1.890625 13.875 -1.734375 C 14.070312 -1.578125 14.285156 -1.46875 14.515625 -1.40625 C 14.753906 -1.34375 14.984375 -1.3125 15.203125 -1.3125 C 15.390625 -1.3125 15.566406 -1.328125 15.734375 -1.359375 C 15.910156 -1.398438 16.050781 -1.441406 16.15625 -1.484375 C 15.8125 -1.253906 15.507812 -1.046875 15.25 -0.859375 C 14.988281 -0.679688 14.75 -0.523438 14.53125 -0.390625 C 14.3125 -0.253906 14.101562 -0.148438 13.90625 -0.078125 C 13.71875 -0.015625 13.519531 0.015625 13.3125 0.015625 C 13.164062 0.015625 13.023438 -0.00390625 12.890625 -0.046875 C 12.753906 -0.0859375 12.609375 -0.15625 12.453125 -0.25 C 12.296875 -0.34375 12.128906 -0.457031 11.953125 -0.59375 C 11.785156 -0.738281 11.597656 -0.910156 11.390625 -1.109375 C 11.253906 -1.242188 11.050781 -1.460938 10.78125 -1.765625 C 10.507812 -2.066406 10.207031 -2.40625 9.875 -2.78125 C 9.539062 -3.15625 9.191406 -3.546875 8.828125 -3.953125 C 8.460938 -4.359375 8.117188 -4.734375 7.796875 -5.078125 C 7.484375 -5.421875 7.203125 -5.71875 6.953125 -5.96875 C 6.703125 -6.21875 6.535156 -6.367188 6.453125 -6.421875 C 6.335938 -6.484375 6.222656 -6.539062 6.109375 -6.59375 C 6.003906 -6.632812 5.882812 -6.671875 5.75 -6.703125 C 5.625 -6.734375 5.5 -6.742188 5.375 -6.734375 L 6.921875 -7.796875 C 7.273438 -7.796875 7.613281 -7.878906 7.9375 -8.046875 C 8.269531 -8.210938 8.550781 -8.453125 8.78125 -8.765625 C 9.019531 -9.085938 9.207031 -9.472656 9.34375 -9.921875 C 9.476562 -10.378906 9.535156 -10.894531 9.515625 -11.46875 C 9.492188 -11.8125 9.414062 -12.125 9.28125 -12.40625 C 9.144531 -12.6875 8.96875 -12.9375 8.75 -13.15625 C 8.53125 -13.375 8.28125 -13.566406 8 -13.734375 C 7.726562 -13.898438 7.445312 -14.035156 7.15625 -14.140625 C 6.863281 -14.253906 6.570312 -14.335938 6.28125 -14.390625 C 5.988281 -14.441406 5.722656 -14.46875 5.484375 -14.46875 C 5.316406 -14.46875 5.140625 -14.460938 4.953125 -14.453125 C 4.765625 -14.453125 4.570312 -14.453125 4.375 -14.453125 C 4.351562 -13.117188 4.328125 -11.925781 4.296875 -10.875 C 4.273438 -9.832031 4.253906 -8.90625 4.234375 -8.09375 C 4.210938 -7.289062 4.191406 -6.59375 4.171875 -6 C 4.160156 -5.414062 4.144531 -4.914062 4.125 -4.5 C 4.082031 -3.53125 4.039062 -2.878906 4 -2.546875 C 3.976562 -2.398438 3.941406 -2.253906 3.890625 -2.109375 C 3.847656 -1.972656 3.789062 -1.832031 3.71875 -1.6875 C 3.644531 -1.539062 3.550781 -1.394531 3.4375 -1.25 C 3.738281 -1.21875 4.007812 -1.195312 4.25 -1.1875 C 4.5 -1.1875 4.726562 -1.1875 4.9375 -1.1875 C 5.425781 -1.1875 5.785156 -1.195312 6.015625 -1.21875 C 6.253906 -1.25 6.390625 -1.273438 6.421875 -1.296875 C 6.054688 -1.109375 5.707031 -0.9375 5.375 -0.78125 C 5.050781 -0.625 4.738281 -0.484375 4.4375 -0.359375 C 4.132812 -0.242188 3.847656 -0.148438 3.578125 -0.078125 C 3.304688 -0.015625 3.039062 0.015625 2.78125 0.015625 L 0.921875 0.015625 L 1.859375 -0.609375 C 1.910156 -0.796875 1.957031 -1.015625 2 -1.265625 C 2.050781 -1.523438 2.09375 -1.800781 2.125 -2.09375 C 2.15625 -2.394531 2.179688 -2.703125 2.203125 -3.015625 C 2.234375 -3.328125 2.257812 -3.640625 2.28125 -3.953125 C 2.320312 -4.648438 2.351562 -5.394531 2.375 -6.1875 C 2.394531 -7.28125 2.410156 -8.332031 2.421875 -9.34375 C 2.429688 -9.78125 2.4375 -10.226562 2.4375 -10.6875 C 2.445312 -11.144531 2.453125 -11.59375 2.453125 -12.03125 C 2.460938 -12.46875 2.46875 -12.882812 2.46875 -13.28125 C 2.476562 -13.675781 2.484375 -14.023438 2.484375 -14.328125 L 0.5625 -14.1875 L 2.640625 -15.4375 C 2.765625 -15.414062 2.898438 -15.398438 3.046875 -15.390625 C 3.191406 -15.390625 3.34375 -15.390625 3.5 -15.390625 C 3.800781 -15.390625 4.101562 -15.398438 4.40625 -15.421875 C 4.707031 -15.453125 5.003906 -15.484375 5.296875 -15.515625 C 5.597656 -15.546875 5.890625 -15.570312 6.171875 -15.59375 C 6.453125 -15.625 6.738281 -15.640625 7.03125 -15.640625 C 7.601562 -15.640625 8.160156 -15.546875 8.703125 -15.359375 C 9.253906 -15.171875 9.738281 -14.894531 10.15625 -14.53125 C 10.570312 -14.164062 10.894531 -13.722656 11.125 -13.203125 C 11.363281 -12.679688 11.453125 -12.097656 11.390625 -11.453125 Z M 16.1875 -1.5 C 16.164062 -1.5 16.15625 -1.5 16.15625 -1.5 L 16.15625 -1.484375 L 16.15625 -1.5 C 16.164062 -1.5 16.175781 -1.5 16.1875 -1.5 Z M 16.1875 -1.5 "/></g></g></g><g fill="#000000" fill-opacity="1"><g transform="translate(191.680357, 227.709646)"><g><path d="M 9.375 -8.375 C 9.3125 -8.34375 9.21875 -8.285156 9.09375 -8.203125 C 8.976562 -8.128906 8.816406 -8.023438 8.609375 -7.890625 C 8.398438 -7.753906 8.125 -7.566406 7.78125 -7.328125 C 7.832031 -7.429688 7.828125 -7.507812 7.765625 -7.5625 C 7.710938 -7.625 7.632812 -7.664062 7.53125 -7.6875 C 7.414062 -7.71875 7.273438 -7.726562 7.109375 -7.71875 C 6.847656 -7.695312 6.476562 -7.671875 6 -7.640625 C 5.519531 -7.609375 4.976562 -7.582031 4.375 -7.5625 C 4.375 -6.425781 4.363281 -5.5 4.34375 -4.78125 C 4.332031 -4.070312 4.328125 -3.515625 4.328125 -3.109375 C 4.304688 -2.640625 4.289062 -2.296875 4.28125 -2.078125 C 4.269531 -1.941406 4.226562 -1.804688 4.15625 -1.671875 C 4.09375 -1.546875 4 -1.414062 3.875 -1.28125 C 3.75 -1.144531 3.578125 -1.023438 3.359375 -0.921875 L 8.203125 -0.921875 C 8.421875 -0.921875 8.648438 -0.929688 8.890625 -0.953125 C 9.085938 -0.984375 9.300781 -1.019531 9.53125 -1.0625 C 9.757812 -1.113281 9.976562 -1.191406 10.1875 -1.296875 C 9.832031 -0.960938 9.476562 -0.703125 9.125 -0.515625 C 8.78125 -0.335938 8.460938 -0.210938 8.171875 -0.140625 C 7.828125 -0.046875 7.5 0.00390625 7.1875 0.015625 C 6.488281 0.015625 5.832031 0.0195312 5.21875 0.03125 C 4.601562 0.0390625 4.046875 0.0546875 3.546875 0.078125 C 3.046875 0.0976562 2.617188 0.125 2.265625 0.15625 C 1.910156 0.1875 1.65625 0.222656 1.5 0.265625 C 1.71875 0.046875 1.890625 -0.164062 2.015625 -0.375 C 2.140625 -0.59375 2.234375 -0.832031 2.296875 -1.09375 C 2.367188 -1.363281 2.410156 -1.660156 2.421875 -1.984375 C 2.441406 -2.316406 2.445312 -2.710938 2.4375 -3.171875 L 2.4375 -7.546875 C 2.238281 -7.546875 2.039062 -7.546875 1.84375 -7.546875 C 1.644531 -7.554688 1.453125 -7.570312 1.265625 -7.59375 L 2.4375 -8.203125 C 2.4375 -8.585938 2.4375 -8.988281 2.4375 -9.40625 C 2.4375 -9.832031 2.4375 -10.285156 2.4375 -10.765625 C 2.4375 -11.253906 2.429688 -11.773438 2.421875 -12.328125 C 2.421875 -12.890625 2.421875 -13.5 2.421875 -14.15625 C 2.097656 -14.15625 1.796875 -14.160156 1.515625 -14.171875 C 1.234375 -14.179688 0.96875 -14.191406 0.71875 -14.203125 L 2.71875 -15.265625 C 4.0625 -15.265625 5.210938 -15.269531 6.171875 -15.28125 C 7.128906 -15.300781 7.921875 -15.320312 8.546875 -15.34375 C 9.273438 -15.375 9.878906 -15.40625 10.359375 -15.4375 C 10.609375 -15.4375 10.769531 -15.414062 10.84375 -15.375 C 10.925781 -15.332031 10.957031 -15.285156 10.9375 -15.234375 C 10.925781 -15.191406 10.882812 -15.144531 10.8125 -15.09375 C 10.738281 -15.050781 10.675781 -15.019531 10.625 -15 C 10.5625 -14.96875 10.453125 -14.90625 10.296875 -14.8125 C 10.160156 -14.738281 9.96875 -14.617188 9.71875 -14.453125 C 9.476562 -14.285156 9.144531 -14.054688 8.71875 -13.765625 C 8.863281 -13.921875 8.925781 -14.035156 8.90625 -14.109375 C 8.882812 -14.191406 8.832031 -14.25 8.75 -14.28125 C 8.65625 -14.3125 8.53125 -14.328125 8.375 -14.328125 C 8.238281 -14.316406 8.035156 -14.304688 7.765625 -14.296875 C 7.492188 -14.285156 7.175781 -14.269531 6.8125 -14.25 C 6.457031 -14.238281 6.066406 -14.226562 5.640625 -14.21875 C 5.222656 -14.207031 4.796875 -14.195312 4.359375 -14.1875 C 4.359375 -13.050781 4.359375 -12.03125 4.359375 -11.125 C 4.367188 -10.21875 4.375 -9.390625 4.375 -8.640625 C 5.101562 -8.640625 5.753906 -8.648438 6.328125 -8.671875 C 6.910156 -8.691406 7.410156 -8.710938 7.828125 -8.734375 C 8.304688 -8.765625 8.734375 -8.789062 9.109375 -8.8125 C 9.347656 -8.8125 9.503906 -8.789062 9.578125 -8.75 C 9.660156 -8.71875 9.691406 -8.675781 9.671875 -8.625 C 9.660156 -8.582031 9.617188 -8.535156 9.546875 -8.484375 C 9.484375 -8.429688 9.425781 -8.394531 9.375 -8.375 Z M 9.375 -8.375 "/></g></g></g><g fill="#000000" fill-opacity="1"><g transform="translate(204.496823, 227.709646)"><g><path d="M 6.171875 -15.890625 C 5.835938 -15.671875 5.535156 -15.488281 5.265625 -15.34375 C 4.992188 -15.195312 4.738281 -15.070312 4.5 -14.96875 C 4.488281 -14.363281 4.472656 -13.796875 4.453125 -13.265625 C 4.441406 -12.742188 4.429688 -12.25 4.421875 -11.78125 C 4.410156 -11.320312 4.398438 -10.882812 4.390625 -10.46875 C 4.390625 -10.0625 4.382812 -9.664062 4.375 -9.28125 C 4.75 -9.363281 5.140625 -9.40625 5.546875 -9.40625 C 5.941406 -9.40625 6.394531 -9.398438 6.90625 -9.390625 C 7.425781 -9.378906 7.960938 -9.363281 8.515625 -9.34375 C 9.066406 -9.320312 9.625 -9.304688 10.1875 -9.296875 C 10.75 -9.285156 11.273438 -9.28125 11.765625 -9.28125 L 12.265625 -9.28125 L 12.265625 -14.59375 C 12.046875 -14.570312 11.773438 -14.546875 11.453125 -14.515625 C 11.140625 -14.484375 10.785156 -14.441406 10.390625 -14.390625 C 10.773438 -14.703125 11.117188 -14.9375 11.421875 -15.09375 C 11.722656 -15.257812 11.984375 -15.378906 12.203125 -15.453125 C 12.460938 -15.535156 12.691406 -15.585938 12.890625 -15.609375 C 13.148438 -15.609375 13.425781 -15.613281 13.71875 -15.625 C 14.019531 -15.632812 14.3125 -15.648438 14.59375 -15.671875 C 14.882812 -15.703125 15.144531 -15.734375 15.375 -15.765625 C 15.601562 -15.804688 15.773438 -15.847656 15.890625 -15.890625 C 15.554688 -15.671875 15.253906 -15.488281 14.984375 -15.34375 C 14.722656 -15.195312 14.472656 -15.070312 14.234375 -14.96875 C 14.191406 -13.675781 14.160156 -12.519531 14.140625 -11.5 C 14.117188 -10.488281 14.097656 -9.585938 14.078125 -8.796875 C 14.066406 -8.015625 14.054688 -7.332031 14.046875 -6.75 C 14.035156 -6.175781 14.023438 -5.6875 14.015625 -5.28125 C 13.992188 -4.332031 13.988281 -3.6875 14 -3.34375 C 13.988281 -3.082031 13.953125 -2.820312 13.890625 -2.5625 C 13.828125 -2.34375 13.738281 -2.101562 13.625 -1.84375 C 13.507812 -1.59375 13.347656 -1.363281 13.140625 -1.15625 C 13.265625 -1.144531 13.382812 -1.132812 13.5 -1.125 C 13.625 -1.125 13.75 -1.125 13.875 -1.125 C 14.207031 -1.125 14.503906 -1.140625 14.765625 -1.171875 C 15.035156 -1.210938 15.269531 -1.25 15.46875 -1.28125 C 15.664062 -1.3125 15.820312 -1.34375 15.9375 -1.375 C 16.050781 -1.414062 16.125 -1.445312 16.15625 -1.46875 C 15.769531 -1.207031 15.453125 -0.984375 15.203125 -0.796875 C 14.960938 -0.609375 14.738281 -0.457031 14.53125 -0.34375 C 14.332031 -0.226562 14.140625 -0.140625 13.953125 -0.078125 C 13.765625 -0.0234375 13.539062 0 13.28125 0 C 12.945312 0 12.660156 -0.0078125 12.421875 -0.03125 C 12.179688 -0.0625 11.941406 -0.078125 11.703125 -0.078125 C 11.578125 -0.078125 11.453125 -0.0703125 11.328125 -0.0625 C 11.203125 -0.0507812 11.0625 -0.03125 10.90625 0 C 11.132812 -0.101562 11.332031 -0.210938 11.5 -0.328125 C 11.675781 -0.453125 11.816406 -0.617188 11.921875 -0.828125 C 12.035156 -1.035156 12.117188 -1.3125 12.171875 -1.65625 C 12.234375 -2 12.265625 -2.460938 12.265625 -3.046875 L 12.265625 -8.59375 C 12.054688 -8.550781 11.820312 -8.515625 11.5625 -8.484375 C 11.3125 -8.453125 11.019531 -8.4375 10.6875 -8.4375 C 10.21875 -8.4375 9.675781 -8.453125 9.0625 -8.484375 C 8.445312 -8.515625 7.769531 -8.53125 7.03125 -8.53125 C 6.59375 -8.53125 6.148438 -8.519531 5.703125 -8.5 C 5.265625 -8.476562 4.816406 -8.441406 4.359375 -8.390625 C 4.328125 -7.347656 4.304688 -6.5 4.296875 -5.84375 C 4.285156 -5.1875 4.273438 -4.671875 4.265625 -4.296875 C 4.265625 -3.867188 4.265625 -3.550781 4.265625 -3.34375 C 4.253906 -3.082031 4.21875 -2.820312 4.15625 -2.5625 C 4.09375 -2.34375 4.003906 -2.101562 3.890625 -1.84375 C 3.773438 -1.59375 3.613281 -1.363281 3.40625 -1.15625 C 3.539062 -1.144531 3.664062 -1.132812 3.78125 -1.125 C 3.90625 -1.125 4.03125 -1.125 4.15625 -1.125 C 4.488281 -1.125 4.785156 -1.140625 5.046875 -1.171875 C 5.316406 -1.210938 5.550781 -1.25 5.75 -1.28125 C 5.945312 -1.3125 6.097656 -1.34375 6.203125 -1.375 C 6.316406 -1.414062 6.390625 -1.445312 6.421875 -1.46875 C 6.046875 -1.207031 5.734375 -0.984375 5.484375 -0.796875 C 5.234375 -0.609375 5.007812 -0.457031 4.8125 -0.34375 C 4.613281 -0.226562 4.421875 -0.140625 4.234375 -0.078125 C 4.046875 -0.0234375 3.820312 0 3.5625 0 C 3.21875 0 2.925781 -0.0078125 2.6875 -0.03125 C 2.445312 -0.0625 2.207031 -0.078125 1.96875 -0.078125 C 1.84375 -0.078125 1.71875 -0.0703125 1.59375 -0.0625 C 1.46875 -0.0507812 1.332031 -0.03125 1.1875 0 C 1.382812 -0.164062 1.5625 -0.347656 1.71875 -0.546875 C 1.882812 -0.753906 2.023438 -1.003906 2.140625 -1.296875 C 2.265625 -1.585938 2.359375 -1.9375 2.421875 -2.34375 C 2.484375 -2.75 2.515625 -3.242188 2.515625 -3.828125 L 2.515625 -8.0625 C 2.359375 -8.03125 2.195312 -7.992188 2.03125 -7.953125 C 1.875 -7.910156 1.71875 -7.859375 1.5625 -7.796875 C 1.71875 -7.941406 1.875 -8.070312 2.03125 -8.1875 C 2.195312 -8.3125 2.359375 -8.429688 2.515625 -8.546875 L 2.515625 -14.59375 C 2.296875 -14.570312 2.03125 -14.546875 1.71875 -14.515625 C 1.40625 -14.484375 1.050781 -14.441406 0.65625 -14.390625 C 1.039062 -14.703125 1.382812 -14.9375 1.6875 -15.09375 C 2 -15.257812 2.265625 -15.378906 2.484375 -15.453125 C 2.742188 -15.535156 2.972656 -15.585938 3.171875 -15.609375 C 3.421875 -15.609375 3.695312 -15.613281 4 -15.625 C 4.300781 -15.632812 4.59375 -15.648438 4.875 -15.671875 C 5.15625 -15.703125 5.410156 -15.734375 5.640625 -15.765625 C 5.878906 -15.804688 6.054688 -15.847656 6.171875 -15.890625 Z M 6.421875 -1.46875 C 6.429688 -1.476562 6.441406 -1.484375 6.453125 -1.484375 Z M 16.15625 -1.46875 C 16.164062 -1.476562 16.175781 -1.484375 16.1875 -1.484375 Z M 16.15625 -1.46875 "/></g></g></g><g fill="#000000" fill-opacity="1"><g transform="translate(222.682795, 227.709646)"><g><path d="M 21.546875 -1.265625 C 21.378906 -1.128906 21.140625 -0.96875 20.828125 -0.78125 C 20.523438 -0.601562 20.164062 -0.4375 19.75 -0.28125 C 19.34375 -0.125 18.894531 0.00390625 18.40625 0.109375 C 17.914062 0.210938 17.40625 0.265625 16.875 0.265625 C 16.96875 0.0976562 17.039062 -0.0507812 17.09375 -0.1875 C 17.15625 -0.332031 17.207031 -0.472656 17.25 -0.609375 C 17.289062 -0.742188 17.316406 -0.878906 17.328125 -1.015625 C 17.347656 -1.148438 17.359375 -1.300781 17.359375 -1.46875 C 17.359375 -1.644531 17.347656 -1.960938 17.328125 -2.421875 C 17.304688 -2.878906 17.28125 -3.414062 17.25 -4.03125 C 17.21875 -4.65625 17.179688 -5.332031 17.140625 -6.0625 C 17.109375 -6.789062 17.078125 -7.507812 17.046875 -8.21875 C 17.015625 -8.925781 16.984375 -9.597656 16.953125 -10.234375 C 16.929688 -10.878906 16.921875 -11.429688 16.921875 -11.890625 C 16.546875 -11.222656 16.171875 -10.609375 15.796875 -10.046875 C 15.429688 -9.492188 15.070312 -8.960938 14.71875 -8.453125 C 14.375 -7.941406 14.035156 -7.441406 13.703125 -6.953125 C 13.367188 -6.460938 13.046875 -5.953125 12.734375 -5.421875 C 12.429688 -4.890625 12.140625 -4.332031 11.859375 -3.75 C 11.578125 -3.164062 11.316406 -2.519531 11.078125 -1.8125 L 9.21875 0.265625 C 9.238281 0.015625 9.191406 -0.28125 9.078125 -0.625 C 8.972656 -0.976562 8.847656 -1.320312 8.703125 -1.65625 C 8.546875 -2.039062 8.363281 -2.4375 8.15625 -2.84375 C 7.914062 -3.28125 7.59375 -3.882812 7.1875 -4.65625 C 6.832031 -5.300781 6.363281 -6.164062 5.78125 -7.25 C 5.207031 -8.332031 4.488281 -9.675781 3.625 -11.28125 C 3.570312 -10.414062 3.523438 -9.535156 3.484375 -8.640625 C 3.441406 -7.753906 3.378906 -6.875 3.296875 -6 C 3.222656 -5.132812 3.113281 -4.28125 2.96875 -3.4375 C 2.832031 -2.601562 2.648438 -1.8125 2.421875 -1.0625 C 2.546875 -1.019531 2.679688 -0.988281 2.828125 -0.96875 C 2.972656 -0.945312 3.125 -0.9375 3.28125 -0.9375 C 3.4375 -0.9375 3.582031 -0.941406 3.71875 -0.953125 C 3.863281 -0.972656 3.992188 -0.988281 4.109375 -1 C 4.234375 -1.019531 4.359375 -1.039062 4.484375 -1.0625 C 4.179688 -0.832031 3.90625 -0.632812 3.65625 -0.46875 C 3.40625 -0.3125 3.144531 -0.175781 2.875 -0.0625 C 2.601562 0.0507812 2.304688 0.132812 1.984375 0.1875 C 1.671875 0.238281 1.296875 0.265625 0.859375 0.265625 C 1.054688 0.078125 1.226562 -0.238281 1.375 -0.6875 C 1.519531 -1.132812 1.644531 -1.664062 1.75 -2.28125 C 1.851562 -2.894531 1.9375 -3.570312 2 -4.3125 C 2.070312 -5.0625 2.132812 -5.828125 2.1875 -6.609375 C 2.25 -7.398438 2.296875 -8.191406 2.328125 -8.984375 C 2.359375 -9.773438 2.390625 -10.523438 2.421875 -11.234375 C 2.453125 -11.941406 2.484375 -12.585938 2.515625 -13.171875 C 2.554688 -13.765625 2.609375 -14.25 2.671875 -14.625 L 4.21875 -16.328125 C 4.15625 -16.210938 4.125 -16.082031 4.125 -15.9375 C 4.125 -15.800781 4.140625 -15.671875 4.171875 -15.546875 C 4.203125 -15.390625 4.242188 -15.234375 4.296875 -15.078125 C 4.335938 -14.984375 4.4375 -14.78125 4.59375 -14.46875 C 4.75 -14.15625 4.941406 -13.769531 5.171875 -13.3125 C 5.410156 -12.851562 5.679688 -12.332031 5.984375 -11.75 C 6.285156 -11.175781 6.597656 -10.570312 6.921875 -9.9375 C 7.253906 -9.3125 7.585938 -8.675781 7.921875 -8.03125 C 8.253906 -7.382812 8.570312 -6.765625 8.875 -6.171875 C 9.1875 -5.585938 9.46875 -5.039062 9.71875 -4.53125 C 9.976562 -4.019531 10.191406 -3.585938 10.359375 -3.234375 C 10.960938 -4.171875 11.578125 -5.117188 12.203125 -6.078125 C 12.828125 -7.046875 13.425781 -8.003906 14 -8.953125 C 14.570312 -9.910156 15.101562 -10.859375 15.59375 -11.796875 C 16.09375 -12.742188 16.519531 -13.671875 16.875 -14.578125 L 19.109375 -16.328125 C 19.066406 -15.015625 19.054688 -13.753906 19.078125 -12.546875 C 19.097656 -11.335938 19.128906 -10.160156 19.171875 -9.015625 C 19.222656 -7.867188 19.269531 -6.742188 19.3125 -5.640625 C 19.351562 -4.535156 19.375 -3.4375 19.375 -2.34375 C 19.375 -2.019531 19.351562 -1.753906 19.3125 -1.546875 C 19.269531 -1.347656 19.203125 -1.207031 19.109375 -1.125 C 19.429688 -1.082031 19.765625 -1.0625 20.109375 -1.0625 C 20.390625 -1.0625 20.65625 -1.078125 20.90625 -1.109375 C 21.164062 -1.140625 21.378906 -1.191406 21.546875 -1.265625 Z M 21.546875 -1.265625 "/></g></g></g><g fill="#000000" fill-opacity="1"><g transform="translate(245.950031, 227.709646)"><g><path d="M 4.265625 -1.109375 C 3.878906 -0.898438 3.515625 -0.722656 3.171875 -0.578125 C 2.828125 -0.429688 2.503906 -0.316406 2.203125 -0.234375 C 1.910156 -0.148438 1.644531 -0.0859375 1.40625 -0.046875 C 1.164062 -0.015625 0.960938 0 0.796875 0 L -0.8125 0 L 0.359375 -0.65625 C 0.472656 -0.8125 0.585938 -0.96875 0.703125 -1.125 C 0.816406 -1.28125 0.914062 -1.425781 1 -1.5625 C 1.082031 -1.707031 1.164062 -1.851562 1.25 -2 C 1.46875 -2.445312 1.796875 -3.175781 2.234375 -4.1875 C 2.410156 -4.613281 2.617188 -5.117188 2.859375 -5.703125 C 3.109375 -6.296875 3.390625 -6.984375 3.703125 -7.765625 C 4.023438 -8.546875 4.382812 -9.4375 4.78125 -10.4375 C 5.175781 -11.4375 5.613281 -12.554688 6.09375 -13.796875 L 7.953125 -15.5 L 12.140625 -1.3125 C 12.429688 -1.238281 12.710938 -1.1875 12.984375 -1.15625 C 13.265625 -1.132812 13.523438 -1.125 13.765625 -1.125 C 13.898438 -1.125 14.019531 -1.125 14.125 -1.125 C 14.226562 -1.132812 14.320312 -1.144531 14.40625 -1.15625 C 14.488281 -1.15625 14.566406 -1.164062 14.640625 -1.1875 C 14.234375 -0.988281 13.875 -0.816406 13.5625 -0.671875 C 13.257812 -0.523438 12.988281 -0.398438 12.75 -0.296875 C 12.507812 -0.203125 12.285156 -0.128906 12.078125 -0.078125 C 11.878906 -0.0234375 11.675781 0 11.46875 0 L 9.765625 0 L 10.328125 -0.359375 L 8.609375 -6.015625 C 8.398438 -5.953125 8.160156 -5.894531 7.890625 -5.84375 C 7.628906 -5.789062 7.3125 -5.742188 6.9375 -5.703125 C 6.5625 -5.660156 6.125 -5.617188 5.625 -5.578125 C 5.132812 -5.546875 4.566406 -5.515625 3.921875 -5.484375 C 3.617188 -4.847656 3.34375 -4.285156 3.09375 -3.796875 C 2.84375 -3.304688 2.617188 -2.878906 2.421875 -2.515625 C 2.222656 -2.148438 2.046875 -1.84375 1.890625 -1.59375 C 1.742188 -1.351562 1.613281 -1.15625 1.5 -1 C 1.625 -0.976562 1.757812 -0.960938 1.90625 -0.953125 C 2.0625 -0.941406 2.210938 -0.9375 2.359375 -0.9375 C 2.585938 -0.9375 2.8125 -0.945312 3.03125 -0.96875 C 3.257812 -0.988281 3.46875 -1.007812 3.65625 -1.03125 C 3.863281 -1.050781 4.066406 -1.078125 4.265625 -1.109375 Z M 5.75 -6.75 C 6.707031 -6.75 7.582031 -6.773438 8.375 -6.828125 L 6.734375 -12.25 C 6.296875 -11.113281 5.890625 -10.097656 5.515625 -9.203125 C 5.148438 -8.316406 4.804688 -7.5 4.484375 -6.75 Z M 5.75 -6.75 "/></g></g></g><g fill="#000000" fill-opacity="1"><g transform="translate(261.56334, 227.709646)"><g><path d="M 3.078125 -1.96875 C 3.066406 -1.90625 3.035156 -1.828125 2.984375 -1.734375 C 2.941406 -1.660156 2.878906 -1.5625 2.796875 -1.4375 C 2.722656 -1.320312 2.617188 -1.1875 2.484375 -1.03125 C 2.691406 -0.976562 2.898438 -0.945312 3.109375 -0.9375 C 3.316406 -0.925781 3.507812 -0.921875 3.6875 -0.921875 C 4.050781 -0.921875 4.34375 -0.929688 4.5625 -0.953125 C 4.789062 -0.984375 4.925781 -1.007812 4.96875 -1.03125 C 4.632812 -0.875 4.351562 -0.726562 4.125 -0.59375 C 3.90625 -0.457031 3.679688 -0.335938 3.453125 -0.234375 C 3.222656 -0.128906 2.957031 -0.046875 2.65625 0.015625 C 2.363281 0.0859375 1.972656 0.132812 1.484375 0.15625 C 1.515625 0.132812 1.5625 0.078125 1.625 -0.015625 L 1.421875 0.15625 C 1.316406 0.164062 1.210938 0.171875 1.109375 0.171875 C 1.003906 0.171875 0.898438 0.171875 0.796875 0.171875 L 1.765625 -0.5625 C 1.796875 -0.738281 1.828125 -0.929688 1.859375 -1.140625 C 1.890625 -1.359375 1.914062 -1.582031 1.9375 -1.8125 C 1.957031 -2.050781 1.976562 -2.289062 2 -2.53125 C 2.019531 -2.769531 2.035156 -3.003906 2.046875 -3.234375 C 2.085938 -3.765625 2.117188 -4.304688 2.140625 -4.859375 C 2.179688 -6.472656 2.207031 -8.0625 2.21875 -9.625 C 2.238281 -11.1875 2.25 -12.753906 2.25 -14.328125 L 3.4375 -16.25 C 3.476562 -15.5625 3.609375 -14.898438 3.828125 -14.265625 C 4.046875 -13.640625 4.332031 -13.023438 4.6875 -12.421875 C 5.050781 -11.828125 5.457031 -11.253906 5.90625 -10.703125 C 6.363281 -10.160156 6.847656 -9.625 7.359375 -9.09375 C 7.878906 -8.5625 8.40625 -8.039062 8.9375 -7.53125 C 9.46875 -7.03125 9.984375 -6.535156 10.484375 -6.046875 C 10.992188 -5.554688 11.472656 -5.066406 11.921875 -4.578125 C 12.378906 -4.085938 12.78125 -3.597656 13.125 -3.109375 C 13.226562 -4.648438 13.296875 -6.15625 13.328125 -7.625 C 13.359375 -9.09375 13.375 -10.554688 13.375 -12.015625 C 13.375 -12.671875 13.351562 -13.1875 13.3125 -13.5625 C 13.28125 -13.9375 13.226562 -14.25 13.15625 -14.5 C 13.070312 -14.476562 12.984375 -14.46875 12.890625 -14.46875 C 12.796875 -14.46875 12.695312 -14.46875 12.59375 -14.46875 C 12.34375 -14.46875 12.101562 -14.460938 11.875 -14.453125 C 11.644531 -14.441406 11.453125 -14.398438 11.296875 -14.328125 C 11.566406 -14.515625 11.828125 -14.6875 12.078125 -14.84375 C 12.328125 -15 12.578125 -15.128906 12.828125 -15.234375 C 13.078125 -15.347656 13.332031 -15.4375 13.59375 -15.5 C 13.851562 -15.570312 14.132812 -15.609375 14.4375 -15.609375 C 14.59375 -15.609375 14.769531 -15.601562 14.96875 -15.59375 C 15.175781 -15.582031 15.398438 -15.554688 15.640625 -15.515625 C 15.453125 -15.398438 15.269531 -15.289062 15.09375 -15.1875 C 14.925781 -15.09375 14.757812 -15.007812 14.59375 -14.9375 C 14.582031 -12.757812 14.519531 -10.617188 14.40625 -8.515625 C 14.300781 -6.410156 14.195312 -4.304688 14.09375 -2.203125 C 13.664062 -1.503906 13.359375 -0.929688 13.171875 -0.484375 C 12.984375 -0.0351562 12.875 0.234375 12.84375 0.328125 L 12.84375 0.375 C 12.519531 -0.363281 12.117188 -1.050781 11.640625 -1.6875 C 11.171875 -2.332031 10.648438 -2.945312 10.078125 -3.53125 C 9.515625 -4.113281 8.925781 -4.679688 8.3125 -5.234375 C 7.695312 -5.796875 7.09375 -6.363281 6.5 -6.9375 C 5.914062 -7.519531 5.359375 -8.125 4.828125 -8.75 C 4.296875 -9.382812 3.832031 -10.066406 3.4375 -10.796875 C 3.425781 -10.179688 3.414062 -9.5625 3.40625 -8.9375 C 3.394531 -8.320312 3.378906 -7.71875 3.359375 -7.125 C 3.347656 -6.539062 3.332031 -5.976562 3.3125 -5.4375 C 3.289062 -4.894531 3.269531 -4.398438 3.25 -3.953125 C 3.226562 -3.503906 3.203125 -3.109375 3.171875 -2.765625 C 3.140625 -2.421875 3.109375 -2.15625 3.078125 -1.96875 Z M 1.484375 0.15625 C 1.472656 0.164062 1.453125 0.171875 1.421875 0.171875 L 1.421875 0.15625 Z M 1.484375 0.15625 "/></g></g></g><g fill="#000000" fill-opacity="1"><g transform="translate(279.62981, 227.709646)"><g/></g></g></svg>